<mxfile host="Electron" modified="2024-06-10T13:53:29.259Z" agent="Mozilla/5.0 (Windows NT 10.0; Win64; x64) AppleWebKit/537.36 (KHTML, like Gecko) draw.io/24.5.1 Chrome/124.0.6367.207 Electron/30.0.6 Safari/537.36" etag="SOD_n5CzOtxqJBuwHWLN" version="24.5.1" type="device">
  <diagram name="Page-1" id="HQin5pxcNoRkBJRHi6BE">
    <mxGraphModel dx="1509" dy="880" grid="1" gridSize="10" guides="1" tooltips="1" connect="1" arrows="1" fold="1" page="1" pageScale="1" pageWidth="1169" pageHeight="827" math="0" shadow="0">
      <root>
        <mxCell id="0" />
        <mxCell id="1" parent="0" />
        <mxCell id="Rv81Eie8Nvcv5eHnvDAR-82" value="1..1" style="text;html=1;align=center;verticalAlign=middle;resizable=0;points=[];autosize=1;strokeColor=none;fillColor=none;" vertex="1" parent="1">
          <mxGeometry x="225" y="543" width="40" height="30" as="geometry" />
        </mxCell>
        <mxCell id="Rv81Eie8Nvcv5eHnvDAR-83" value="1..1" style="text;html=1;align=center;verticalAlign=middle;resizable=0;points=[];autosize=1;strokeColor=none;fillColor=none;" vertex="1" parent="1">
          <mxGeometry x="710" y="489" width="40" height="30" as="geometry" />
        </mxCell>
        <mxCell id="Rv81Eie8Nvcv5eHnvDAR-5" value="Category" style="swimlane;fontStyle=0;childLayout=stackLayout;horizontal=1;startSize=26;horizontalStack=0;resizeParent=1;resizeParentMax=0;resizeLast=0;collapsible=1;marginBottom=0;align=center;fontSize=14;fillColor=#fff2cc;strokeColor=#d6b656;" vertex="1" parent="1">
          <mxGeometry x="65" y="180" width="160" height="86" as="geometry" />
        </mxCell>
        <mxCell id="Rv81Eie8Nvcv5eHnvDAR-6" value="CatID {PK}" style="text;strokeColor=none;fillColor=none;spacingLeft=4;spacingRight=4;overflow=hidden;rotatable=0;points=[[0,0.5],[1,0.5]];portConstraint=eastwest;fontSize=12;whiteSpace=wrap;html=1;" vertex="1" parent="Rv81Eie8Nvcv5eHnvDAR-5">
          <mxGeometry y="26" width="160" height="30" as="geometry" />
        </mxCell>
        <mxCell id="Rv81Eie8Nvcv5eHnvDAR-7" value="CatName" style="text;strokeColor=none;fillColor=none;spacingLeft=4;spacingRight=4;overflow=hidden;rotatable=0;points=[[0,0.5],[1,0.5]];portConstraint=eastwest;fontSize=12;whiteSpace=wrap;html=1;" vertex="1" parent="Rv81Eie8Nvcv5eHnvDAR-5">
          <mxGeometry y="56" width="160" height="30" as="geometry" />
        </mxCell>
        <mxCell id="Rv81Eie8Nvcv5eHnvDAR-9" value="Order" style="swimlane;fontStyle=0;childLayout=stackLayout;horizontal=1;startSize=26;horizontalStack=0;resizeParent=1;resizeParentMax=0;resizeLast=0;collapsible=1;marginBottom=0;align=center;fontSize=14;fillColor=#e1d5e7;strokeColor=#9673a6;" vertex="1" parent="1">
          <mxGeometry x="705" y="500" width="160" height="206" as="geometry" />
        </mxCell>
        <mxCell id="Rv81Eie8Nvcv5eHnvDAR-10" value="OrderID {PK}" style="text;strokeColor=none;fillColor=none;spacingLeft=4;spacingRight=4;overflow=hidden;rotatable=0;points=[[0,0.5],[1,0.5]];portConstraint=eastwest;fontSize=12;whiteSpace=wrap;html=1;" vertex="1" parent="Rv81Eie8Nvcv5eHnvDAR-9">
          <mxGeometry y="26" width="160" height="30" as="geometry" />
        </mxCell>
        <mxCell id="Rv81Eie8Nvcv5eHnvDAR-11" value="UserID {FK}" style="text;strokeColor=none;fillColor=none;spacingLeft=4;spacingRight=4;overflow=hidden;rotatable=0;points=[[0,0.5],[1,0.5]];portConstraint=eastwest;fontSize=12;whiteSpace=wrap;html=1;" vertex="1" parent="Rv81Eie8Nvcv5eHnvDAR-9">
          <mxGeometry y="56" width="160" height="30" as="geometry" />
        </mxCell>
        <mxCell id="Rv81Eie8Nvcv5eHnvDAR-40" value="OrderNumber" style="text;strokeColor=none;fillColor=none;spacingLeft=4;spacingRight=4;overflow=hidden;rotatable=0;points=[[0,0.5],[1,0.5]];portConstraint=eastwest;fontSize=12;whiteSpace=wrap;html=1;" vertex="1" parent="Rv81Eie8Nvcv5eHnvDAR-9">
          <mxGeometry y="86" width="160" height="30" as="geometry" />
        </mxCell>
        <mxCell id="Rv81Eie8Nvcv5eHnvDAR-12" value="OrderDate" style="text;strokeColor=none;fillColor=none;spacingLeft=4;spacingRight=4;overflow=hidden;rotatable=0;points=[[0,0.5],[1,0.5]];portConstraint=eastwest;fontSize=12;whiteSpace=wrap;html=1;" vertex="1" parent="Rv81Eie8Nvcv5eHnvDAR-9">
          <mxGeometry y="116" width="160" height="30" as="geometry" />
        </mxCell>
        <mxCell id="Rv81Eie8Nvcv5eHnvDAR-39" value="Status" style="text;strokeColor=none;fillColor=none;spacingLeft=4;spacingRight=4;overflow=hidden;rotatable=0;points=[[0,0.5],[1,0.5]];portConstraint=eastwest;fontSize=12;whiteSpace=wrap;html=1;" vertex="1" parent="Rv81Eie8Nvcv5eHnvDAR-9">
          <mxGeometry y="146" width="160" height="30" as="geometry" />
        </mxCell>
        <mxCell id="Rv81Eie8Nvcv5eHnvDAR-41" value="Total" style="text;strokeColor=none;fillColor=none;spacingLeft=4;spacingRight=4;overflow=hidden;rotatable=0;points=[[0,0.5],[1,0.5]];portConstraint=eastwest;fontSize=12;whiteSpace=wrap;html=1;" vertex="1" parent="Rv81Eie8Nvcv5eHnvDAR-9">
          <mxGeometry y="176" width="160" height="30" as="geometry" />
        </mxCell>
        <mxCell id="Rv81Eie8Nvcv5eHnvDAR-13" value="OrderDetail" style="swimlane;fontStyle=0;childLayout=stackLayout;horizontal=1;startSize=26;horizontalStack=0;resizeParent=1;resizeParentMax=0;resizeLast=0;collapsible=1;marginBottom=0;align=center;fontSize=14;" vertex="1" parent="1">
          <mxGeometry x="385" y="500" width="160" height="176" as="geometry" />
        </mxCell>
        <mxCell id="Rv81Eie8Nvcv5eHnvDAR-14" value="OrderDetailID {PK}" style="text;strokeColor=none;fillColor=none;spacingLeft=4;spacingRight=4;overflow=hidden;rotatable=0;points=[[0,0.5],[1,0.5]];portConstraint=eastwest;fontSize=12;whiteSpace=wrap;html=1;" vertex="1" parent="Rv81Eie8Nvcv5eHnvDAR-13">
          <mxGeometry y="26" width="160" height="30" as="geometry" />
        </mxCell>
        <mxCell id="Rv81Eie8Nvcv5eHnvDAR-15" value="OrderID {FK}" style="text;strokeColor=none;fillColor=none;spacingLeft=4;spacingRight=4;overflow=hidden;rotatable=0;points=[[0,0.5],[1,0.5]];portConstraint=eastwest;fontSize=12;whiteSpace=wrap;html=1;" vertex="1" parent="Rv81Eie8Nvcv5eHnvDAR-13">
          <mxGeometry y="56" width="160" height="30" as="geometry" />
        </mxCell>
        <mxCell id="Rv81Eie8Nvcv5eHnvDAR-16" value="ProductID {FK}" style="text;strokeColor=none;fillColor=none;spacingLeft=4;spacingRight=4;overflow=hidden;rotatable=0;points=[[0,0.5],[1,0.5]];portConstraint=eastwest;fontSize=12;whiteSpace=wrap;html=1;" vertex="1" parent="Rv81Eie8Nvcv5eHnvDAR-13">
          <mxGeometry y="86" width="160" height="30" as="geometry" />
        </mxCell>
        <mxCell id="Rv81Eie8Nvcv5eHnvDAR-80" value="Quantity" style="text;strokeColor=none;fillColor=none;spacingLeft=4;spacingRight=4;overflow=hidden;rotatable=0;points=[[0,0.5],[1,0.5]];portConstraint=eastwest;fontSize=12;whiteSpace=wrap;html=1;" vertex="1" parent="Rv81Eie8Nvcv5eHnvDAR-13">
          <mxGeometry y="116" width="160" height="30" as="geometry" />
        </mxCell>
        <mxCell id="Rv81Eie8Nvcv5eHnvDAR-81" value="SubTotal" style="text;strokeColor=none;fillColor=none;spacingLeft=4;spacingRight=4;overflow=hidden;rotatable=0;points=[[0,0.5],[1,0.5]];portConstraint=eastwest;fontSize=12;whiteSpace=wrap;html=1;" vertex="1" parent="Rv81Eie8Nvcv5eHnvDAR-13">
          <mxGeometry y="146" width="160" height="30" as="geometry" />
        </mxCell>
        <mxCell id="Rv81Eie8Nvcv5eHnvDAR-17" value="User" style="swimlane;fontStyle=0;childLayout=stackLayout;horizontal=1;startSize=26;horizontalStack=0;resizeParent=1;resizeParentMax=0;resizeLast=0;collapsible=1;marginBottom=0;align=center;fontSize=14;fillColor=#ffe6cc;strokeColor=#d79b00;" vertex="1" parent="1">
          <mxGeometry x="345" y="180" width="160" height="206" as="geometry" />
        </mxCell>
        <mxCell id="Rv81Eie8Nvcv5eHnvDAR-18" value="UserID {PK}" style="text;strokeColor=none;fillColor=none;spacingLeft=4;spacingRight=4;overflow=hidden;rotatable=0;points=[[0,0.5],[1,0.5]];portConstraint=eastwest;fontSize=12;whiteSpace=wrap;html=1;" vertex="1" parent="Rv81Eie8Nvcv5eHnvDAR-17">
          <mxGeometry y="26" width="160" height="30" as="geometry" />
        </mxCell>
        <mxCell id="Rv81Eie8Nvcv5eHnvDAR-19" value="FirstName" style="text;strokeColor=none;fillColor=none;spacingLeft=4;spacingRight=4;overflow=hidden;rotatable=0;points=[[0,0.5],[1,0.5]];portConstraint=eastwest;fontSize=12;whiteSpace=wrap;html=1;" vertex="1" parent="Rv81Eie8Nvcv5eHnvDAR-17">
          <mxGeometry y="56" width="160" height="30" as="geometry" />
        </mxCell>
        <mxCell id="Rv81Eie8Nvcv5eHnvDAR-20" value="LastName" style="text;strokeColor=none;fillColor=none;spacingLeft=4;spacingRight=4;overflow=hidden;rotatable=0;points=[[0,0.5],[1,0.5]];portConstraint=eastwest;fontSize=12;whiteSpace=wrap;html=1;" vertex="1" parent="Rv81Eie8Nvcv5eHnvDAR-17">
          <mxGeometry y="86" width="160" height="30" as="geometry" />
        </mxCell>
        <mxCell id="Rv81Eie8Nvcv5eHnvDAR-27" value="Email" style="text;strokeColor=none;fillColor=none;spacingLeft=4;spacingRight=4;overflow=hidden;rotatable=0;points=[[0,0.5],[1,0.5]];portConstraint=eastwest;fontSize=12;whiteSpace=wrap;html=1;" vertex="1" parent="Rv81Eie8Nvcv5eHnvDAR-17">
          <mxGeometry y="116" width="160" height="30" as="geometry" />
        </mxCell>
        <mxCell id="Rv81Eie8Nvcv5eHnvDAR-28" value="Address" style="text;strokeColor=none;fillColor=none;spacingLeft=4;spacingRight=4;overflow=hidden;rotatable=0;points=[[0,0.5],[1,0.5]];portConstraint=eastwest;fontSize=12;whiteSpace=wrap;html=1;" vertex="1" parent="Rv81Eie8Nvcv5eHnvDAR-17">
          <mxGeometry y="146" width="160" height="30" as="geometry" />
        </mxCell>
        <mxCell id="Rv81Eie8Nvcv5eHnvDAR-29" value="PhoneNumber" style="text;strokeColor=none;fillColor=none;spacingLeft=4;spacingRight=4;overflow=hidden;rotatable=0;points=[[0,0.5],[1,0.5]];portConstraint=eastwest;fontSize=12;whiteSpace=wrap;html=1;" vertex="1" parent="Rv81Eie8Nvcv5eHnvDAR-17">
          <mxGeometry y="176" width="160" height="30" as="geometry" />
        </mxCell>
        <mxCell id="Rv81Eie8Nvcv5eHnvDAR-21" value="Role" style="swimlane;fontStyle=0;childLayout=stackLayout;horizontal=1;startSize=26;horizontalStack=0;resizeParent=1;resizeParentMax=0;resizeLast=0;collapsible=1;marginBottom=0;align=center;fontSize=14;fillColor=#d5e8d4;strokeColor=#82b366;" vertex="1" parent="1">
          <mxGeometry x="945" y="180" width="160" height="86" as="geometry" />
        </mxCell>
        <mxCell id="Rv81Eie8Nvcv5eHnvDAR-22" value="RoleID {PK}" style="text;strokeColor=none;fillColor=none;spacingLeft=4;spacingRight=4;overflow=hidden;rotatable=0;points=[[0,0.5],[1,0.5]];portConstraint=eastwest;fontSize=12;whiteSpace=wrap;html=1;" vertex="1" parent="Rv81Eie8Nvcv5eHnvDAR-21">
          <mxGeometry y="26" width="160" height="30" as="geometry" />
        </mxCell>
        <mxCell id="Rv81Eie8Nvcv5eHnvDAR-23" value="Name" style="text;strokeColor=none;fillColor=none;spacingLeft=4;spacingRight=4;overflow=hidden;rotatable=0;points=[[0,0.5],[1,0.5]];portConstraint=eastwest;fontSize=12;whiteSpace=wrap;html=1;" vertex="1" parent="Rv81Eie8Nvcv5eHnvDAR-21">
          <mxGeometry y="56" width="160" height="30" as="geometry" />
        </mxCell>
        <mxCell id="Rv81Eie8Nvcv5eHnvDAR-25" style="edgeStyle=orthogonalEdgeStyle;rounded=0;orthogonalLoop=1;jettySize=auto;html=1;exitX=0.5;exitY=0;exitDx=0;exitDy=0;entryX=0.5;entryY=1;entryDx=0;entryDy=0;endArrow=none;endFill=0;" edge="1" parent="1" target="Rv81Eie8Nvcv5eHnvDAR-5">
          <mxGeometry relative="1" as="geometry">
            <mxPoint x="145" y="500.0000000000002" as="sourcePoint" />
            <mxPoint x="145" y="295.6099999999999" as="targetPoint" />
          </mxGeometry>
        </mxCell>
        <mxCell id="Rv81Eie8Nvcv5eHnvDAR-26" value="User Tables Extended using Identity Framework so even if you&amp;nbsp;&lt;div&gt;had just user and role table it would be accepted&lt;/div&gt;" style="text;html=1;align=center;verticalAlign=middle;resizable=0;points=[];autosize=1;strokeColor=none;fillColor=none;" vertex="1" parent="1">
          <mxGeometry x="515" y="70" width="360" height="40" as="geometry" />
        </mxCell>
        <mxCell id="Rv81Eie8Nvcv5eHnvDAR-42" style="edgeStyle=orthogonalEdgeStyle;rounded=0;orthogonalLoop=1;jettySize=auto;html=1;exitX=1;exitY=0.5;exitDx=0;exitDy=0;endArrow=none;endFill=0;" edge="1" parent="1" source="Rv81Eie8Nvcv5eHnvDAR-15" target="Rv81Eie8Nvcv5eHnvDAR-11">
          <mxGeometry relative="1" as="geometry" />
        </mxCell>
        <mxCell id="Rv81Eie8Nvcv5eHnvDAR-43" style="edgeStyle=orthogonalEdgeStyle;rounded=0;orthogonalLoop=1;jettySize=auto;html=1;exitX=1;exitY=0.5;exitDx=0;exitDy=0;entryX=0;entryY=0.5;entryDx=0;entryDy=0;endArrow=none;endFill=0;" edge="1" parent="1" target="Rv81Eie8Nvcv5eHnvDAR-15">
          <mxGeometry relative="1" as="geometry">
            <mxPoint x="225" y="571" as="sourcePoint" />
          </mxGeometry>
        </mxCell>
        <mxCell id="Rv81Eie8Nvcv5eHnvDAR-44" style="edgeStyle=orthogonalEdgeStyle;rounded=0;orthogonalLoop=1;jettySize=auto;html=1;exitX=1;exitY=0.5;exitDx=0;exitDy=0;endArrow=none;endFill=0;" edge="1" parent="1" source="Rv81Eie8Nvcv5eHnvDAR-29" target="Rv81Eie8Nvcv5eHnvDAR-9">
          <mxGeometry relative="1" as="geometry" />
        </mxCell>
        <mxCell id="Rv81Eie8Nvcv5eHnvDAR-45" value="UserRole" style="swimlane;fontStyle=0;childLayout=stackLayout;horizontal=1;startSize=26;horizontalStack=0;resizeParent=1;resizeParentMax=0;resizeLast=0;collapsible=1;marginBottom=0;align=center;fontSize=14;" vertex="1" parent="1">
          <mxGeometry x="625" y="180" width="160" height="86" as="geometry" />
        </mxCell>
        <mxCell id="Rv81Eie8Nvcv5eHnvDAR-46" value="RoleID {FK}" style="text;strokeColor=none;fillColor=none;spacingLeft=4;spacingRight=4;overflow=hidden;rotatable=0;points=[[0,0.5],[1,0.5]];portConstraint=eastwest;fontSize=12;whiteSpace=wrap;html=1;" vertex="1" parent="Rv81Eie8Nvcv5eHnvDAR-45">
          <mxGeometry y="26" width="160" height="30" as="geometry" />
        </mxCell>
        <mxCell id="Rv81Eie8Nvcv5eHnvDAR-47" value="UserID {FK}" style="text;strokeColor=none;fillColor=none;spacingLeft=4;spacingRight=4;overflow=hidden;rotatable=0;points=[[0,0.5],[1,0.5]];portConstraint=eastwest;fontSize=12;whiteSpace=wrap;html=1;" vertex="1" parent="Rv81Eie8Nvcv5eHnvDAR-45">
          <mxGeometry y="56" width="160" height="30" as="geometry" />
        </mxCell>
        <mxCell id="Rv81Eie8Nvcv5eHnvDAR-48" style="edgeStyle=orthogonalEdgeStyle;rounded=0;orthogonalLoop=1;jettySize=auto;html=1;exitX=1;exitY=0.5;exitDx=0;exitDy=0;entryX=0;entryY=0.5;entryDx=0;entryDy=0;endArrow=none;endFill=0;" edge="1" parent="1" source="Rv81Eie8Nvcv5eHnvDAR-46" target="Rv81Eie8Nvcv5eHnvDAR-22">
          <mxGeometry relative="1" as="geometry" />
        </mxCell>
        <mxCell id="Rv81Eie8Nvcv5eHnvDAR-49" style="edgeStyle=orthogonalEdgeStyle;rounded=0;orthogonalLoop=1;jettySize=auto;html=1;exitX=1;exitY=0.5;exitDx=0;exitDy=0;entryX=0;entryY=0.5;entryDx=0;entryDy=0;endArrow=none;endFill=0;" edge="1" parent="1" source="Rv81Eie8Nvcv5eHnvDAR-18" target="Rv81Eie8Nvcv5eHnvDAR-46">
          <mxGeometry relative="1" as="geometry" />
        </mxCell>
        <mxCell id="Rv81Eie8Nvcv5eHnvDAR-63" value="" style="group" vertex="1" connectable="0" parent="1">
          <mxGeometry x="260" y="489" width="80" height="30" as="geometry" />
        </mxCell>
        <mxCell id="Rv81Eie8Nvcv5eHnvDAR-55" value="is part of" style="text;html=1;align=center;verticalAlign=middle;resizable=0;points=[];autosize=1;strokeColor=none;fillColor=none;" vertex="1" parent="Rv81Eie8Nvcv5eHnvDAR-63">
          <mxGeometry x="10" width="70" height="30" as="geometry" />
        </mxCell>
        <mxCell id="Rv81Eie8Nvcv5eHnvDAR-62" value="" style="endArrow=block;html=1;rounded=0;endFill=1;" edge="1" parent="Rv81Eie8Nvcv5eHnvDAR-63">
          <mxGeometry relative="1" as="geometry">
            <mxPoint y="30" as="sourcePoint" />
            <mxPoint x="80" y="30" as="targetPoint" />
          </mxGeometry>
        </mxCell>
        <mxCell id="Rv81Eie8Nvcv5eHnvDAR-64" value="" style="group" vertex="1" connectable="0" parent="1">
          <mxGeometry x="580" y="500" width="75" height="30" as="geometry" />
        </mxCell>
        <mxCell id="Rv81Eie8Nvcv5eHnvDAR-54" value="contains" style="text;html=1;align=center;verticalAlign=middle;resizable=0;points=[];autosize=1;strokeColor=none;fillColor=none;" vertex="1" parent="Rv81Eie8Nvcv5eHnvDAR-64">
          <mxGeometry width="70" height="30" as="geometry" />
        </mxCell>
        <mxCell id="Rv81Eie8Nvcv5eHnvDAR-61" value="" style="endArrow=none;html=1;rounded=0;startArrow=block;startFill=1;" edge="1" parent="Rv81Eie8Nvcv5eHnvDAR-64">
          <mxGeometry relative="1" as="geometry">
            <mxPoint y="30" as="sourcePoint" />
            <mxPoint x="75" y="30" as="targetPoint" />
          </mxGeometry>
        </mxCell>
        <mxCell id="Rv81Eie8Nvcv5eHnvDAR-65" value="" style="group" vertex="1" connectable="0" parent="1">
          <mxGeometry x="625" y="320" width="75" height="30" as="geometry" />
        </mxCell>
        <mxCell id="Rv81Eie8Nvcv5eHnvDAR-53" value="places" style="text;html=1;align=center;verticalAlign=middle;resizable=0;points=[];autosize=1;strokeColor=none;fillColor=none;" vertex="1" parent="Rv81Eie8Nvcv5eHnvDAR-65">
          <mxGeometry x="10" width="60" height="30" as="geometry" />
        </mxCell>
        <mxCell id="Rv81Eie8Nvcv5eHnvDAR-57" value="" style="endArrow=block;html=1;rounded=0;endFill=1;" edge="1" parent="Rv81Eie8Nvcv5eHnvDAR-65">
          <mxGeometry relative="1" as="geometry">
            <mxPoint y="30" as="sourcePoint" />
            <mxPoint x="75" y="30" as="targetPoint" />
          </mxGeometry>
        </mxCell>
        <mxCell id="Rv81Eie8Nvcv5eHnvDAR-67" value="" style="group" vertex="1" connectable="0" parent="1">
          <mxGeometry x="525" y="150" width="80" height="30" as="geometry" />
        </mxCell>
        <mxCell id="Rv81Eie8Nvcv5eHnvDAR-51" value="is assigned" style="text;html=1;align=center;verticalAlign=middle;resizable=0;points=[];autosize=1;strokeColor=none;fillColor=none;" vertex="1" parent="Rv81Eie8Nvcv5eHnvDAR-67">
          <mxGeometry width="80" height="30" as="geometry" />
        </mxCell>
        <mxCell id="Rv81Eie8Nvcv5eHnvDAR-59" value="" style="endArrow=block;html=1;rounded=0;endFill=1;" edge="1" parent="Rv81Eie8Nvcv5eHnvDAR-67">
          <mxGeometry relative="1" as="geometry">
            <mxPoint x="2.5" y="30" as="sourcePoint" />
            <mxPoint x="77.5" y="30" as="targetPoint" />
          </mxGeometry>
        </mxCell>
        <mxCell id="Rv81Eie8Nvcv5eHnvDAR-68" value="" style="group" vertex="1" connectable="0" parent="1">
          <mxGeometry x="815" y="150" width="100" height="30" as="geometry" />
        </mxCell>
        <mxCell id="Rv81Eie8Nvcv5eHnvDAR-52" value="is assigned to" style="text;html=1;align=center;verticalAlign=middle;resizable=0;points=[];autosize=1;strokeColor=none;fillColor=none;" vertex="1" parent="Rv81Eie8Nvcv5eHnvDAR-68">
          <mxGeometry width="100" height="30" as="geometry" />
        </mxCell>
        <mxCell id="Rv81Eie8Nvcv5eHnvDAR-60" value="" style="endArrow=none;html=1;rounded=0;startArrow=block;startFill=1;" edge="1" parent="Rv81Eie8Nvcv5eHnvDAR-68">
          <mxGeometry relative="1" as="geometry">
            <mxPoint x="7.5" y="30" as="sourcePoint" />
            <mxPoint x="92.5" y="30" as="targetPoint" />
          </mxGeometry>
        </mxCell>
        <mxCell id="Rv81Eie8Nvcv5eHnvDAR-69" value="0..*" style="text;html=1;align=center;verticalAlign=middle;resizable=0;points=[];autosize=1;strokeColor=none;fillColor=none;" vertex="1" parent="1">
          <mxGeometry x="345" y="543" width="40" height="30" as="geometry" />
        </mxCell>
        <mxCell id="Rv81Eie8Nvcv5eHnvDAR-70" value="1..*" style="text;html=1;align=center;verticalAlign=middle;resizable=0;points=[];autosize=1;strokeColor=none;fillColor=none;" vertex="1" parent="1">
          <mxGeometry x="545" y="537" width="40" height="30" as="geometry" />
        </mxCell>
        <mxCell id="Rv81Eie8Nvcv5eHnvDAR-71" value="1..*" style="text;html=1;align=center;verticalAlign=middle;resizable=0;points=[];autosize=1;strokeColor=none;fillColor=none;" vertex="1" parent="1">
          <mxGeometry x="585" y="190" width="40" height="30" as="geometry" />
        </mxCell>
        <mxCell id="Rv81Eie8Nvcv5eHnvDAR-72" value="1..*" style="text;html=1;align=center;verticalAlign=middle;resizable=0;points=[];autosize=1;strokeColor=none;fillColor=none;" vertex="1" parent="1">
          <mxGeometry x="785" y="190" width="40" height="30" as="geometry" />
        </mxCell>
        <mxCell id="Rv81Eie8Nvcv5eHnvDAR-73" value="1..1" style="text;html=1;align=center;verticalAlign=middle;resizable=0;points=[];autosize=1;strokeColor=none;fillColor=none;" vertex="1" parent="1">
          <mxGeometry x="505" y="190" width="40" height="30" as="geometry" />
        </mxCell>
        <mxCell id="Rv81Eie8Nvcv5eHnvDAR-74" value="1..1" style="text;html=1;align=center;verticalAlign=middle;resizable=0;points=[];autosize=1;strokeColor=none;fillColor=none;" vertex="1" parent="1">
          <mxGeometry x="905" y="190" width="40" height="30" as="geometry" />
        </mxCell>
        <mxCell id="Rv81Eie8Nvcv5eHnvDAR-75" value="1..1" style="text;html=1;align=center;verticalAlign=middle;resizable=0;points=[];autosize=1;strokeColor=none;fillColor=none;" vertex="1" parent="1">
          <mxGeometry x="145" y="268" width="40" height="30" as="geometry" />
        </mxCell>
        <mxCell id="Rv81Eie8Nvcv5eHnvDAR-76" value="1..*" style="text;html=1;align=center;verticalAlign=middle;resizable=0;points=[];autosize=1;strokeColor=none;fillColor=none;" vertex="1" parent="1">
          <mxGeometry x="145" y="470" width="40" height="30" as="geometry" />
        </mxCell>
        <mxCell id="Rv81Eie8Nvcv5eHnvDAR-77" value="0..*" style="text;html=1;align=center;verticalAlign=middle;resizable=0;points=[];autosize=1;strokeColor=none;fillColor=none;" vertex="1" parent="1">
          <mxGeometry x="785" y="470" width="40" height="30" as="geometry" />
        </mxCell>
        <mxCell id="Rv81Eie8Nvcv5eHnvDAR-79" value="1..1" style="text;html=1;align=center;verticalAlign=middle;resizable=0;points=[];autosize=1;strokeColor=none;fillColor=none;" vertex="1" parent="1">
          <mxGeometry x="505" y="340" width="40" height="30" as="geometry" />
        </mxCell>
        <mxCell id="Rv81Eie8Nvcv5eHnvDAR-88" value="Product" style="swimlane;fontStyle=0;childLayout=stackLayout;horizontal=1;startSize=26;horizontalStack=0;resizeParent=1;resizeParentMax=0;resizeLast=0;collapsible=1;marginBottom=0;align=center;fontSize=14;fillColor=#f8cecc;strokeColor=#b85450;" vertex="1" parent="1">
          <mxGeometry x="65" y="500" width="160" height="296" as="geometry" />
        </mxCell>
        <mxCell id="Rv81Eie8Nvcv5eHnvDAR-89" value="ProductID {PK}" style="text;strokeColor=none;fillColor=none;spacingLeft=4;spacingRight=4;overflow=hidden;rotatable=0;points=[[0,0.5],[1,0.5]];portConstraint=eastwest;fontSize=12;whiteSpace=wrap;html=1;" vertex="1" parent="Rv81Eie8Nvcv5eHnvDAR-88">
          <mxGeometry y="26" width="160" height="30" as="geometry" />
        </mxCell>
        <mxCell id="Rv81Eie8Nvcv5eHnvDAR-90" value="CatID {FK}" style="text;strokeColor=none;fillColor=none;spacingLeft=4;spacingRight=4;overflow=hidden;rotatable=0;points=[[0,0.5],[1,0.5]];portConstraint=eastwest;fontSize=12;whiteSpace=wrap;html=1;" vertex="1" parent="Rv81Eie8Nvcv5eHnvDAR-88">
          <mxGeometry y="56" width="160" height="30" as="geometry" />
        </mxCell>
        <mxCell id="Rv81Eie8Nvcv5eHnvDAR-91" value="ProdName" style="text;strokeColor=none;fillColor=none;spacingLeft=4;spacingRight=4;overflow=hidden;rotatable=0;points=[[0,0.5],[1,0.5]];portConstraint=eastwest;fontSize=12;whiteSpace=wrap;html=1;" vertex="1" parent="Rv81Eie8Nvcv5eHnvDAR-88">
          <mxGeometry y="86" width="160" height="30" as="geometry" />
        </mxCell>
        <mxCell id="Rv81Eie8Nvcv5eHnvDAR-92" value="Price" style="text;strokeColor=none;fillColor=none;spacingLeft=4;spacingRight=4;overflow=hidden;rotatable=0;points=[[0,0.5],[1,0.5]];portConstraint=eastwest;fontSize=12;whiteSpace=wrap;html=1;" vertex="1" parent="Rv81Eie8Nvcv5eHnvDAR-88">
          <mxGeometry y="116" width="160" height="30" as="geometry" />
        </mxCell>
        <mxCell id="Rv81Eie8Nvcv5eHnvDAR-93" value="ProdAvailability" style="text;strokeColor=none;fillColor=none;spacingLeft=4;spacingRight=4;overflow=hidden;rotatable=0;points=[[0,0.5],[1,0.5]];portConstraint=eastwest;fontSize=12;whiteSpace=wrap;html=1;" vertex="1" parent="Rv81Eie8Nvcv5eHnvDAR-88">
          <mxGeometry y="146" width="160" height="30" as="geometry" />
        </mxCell>
        <mxCell id="Rv81Eie8Nvcv5eHnvDAR-94" value="ImageUrl" style="text;strokeColor=none;fillColor=none;spacingLeft=4;spacingRight=4;overflow=hidden;rotatable=0;points=[[0,0.5],[1,0.5]];portConstraint=eastwest;fontSize=12;whiteSpace=wrap;html=1;" vertex="1" parent="Rv81Eie8Nvcv5eHnvDAR-88">
          <mxGeometry y="176" width="160" height="30" as="geometry" />
        </mxCell>
        <mxCell id="Rv81Eie8Nvcv5eHnvDAR-95" value="PostedBy" style="text;strokeColor=none;fillColor=none;spacingLeft=4;spacingRight=4;overflow=hidden;rotatable=0;points=[[0,0.5],[1,0.5]];portConstraint=eastwest;fontSize=12;whiteSpace=wrap;html=1;" vertex="1" parent="Rv81Eie8Nvcv5eHnvDAR-88">
          <mxGeometry y="206" width="160" height="30" as="geometry" />
        </mxCell>
        <mxCell id="Rv81Eie8Nvcv5eHnvDAR-96" value="PostedByRole" style="text;strokeColor=none;fillColor=none;spacingLeft=4;spacingRight=4;overflow=hidden;rotatable=0;points=[[0,0.5],[1,0.5]];portConstraint=eastwest;fontSize=12;whiteSpace=wrap;html=1;" vertex="1" parent="Rv81Eie8Nvcv5eHnvDAR-88">
          <mxGeometry y="236" width="160" height="30" as="geometry" />
        </mxCell>
        <mxCell id="Rv81Eie8Nvcv5eHnvDAR-97" value="Stock" style="text;strokeColor=none;fillColor=none;spacingLeft=4;spacingRight=4;overflow=hidden;rotatable=0;points=[[0,0.5],[1,0.5]];portConstraint=eastwest;fontSize=12;whiteSpace=wrap;html=1;" vertex="1" parent="Rv81Eie8Nvcv5eHnvDAR-88">
          <mxGeometry y="266" width="160" height="30" as="geometry" />
        </mxCell>
        <mxCell id="Rv81Eie8Nvcv5eHnvDAR-98" value="" style="group" vertex="1" connectable="0" parent="1">
          <mxGeometry x="160" y="355" width="80" height="60" as="geometry" />
        </mxCell>
        <mxCell id="Rv81Eie8Nvcv5eHnvDAR-50" value="is assigned" style="text;html=1;align=center;verticalAlign=middle;resizable=0;points=[];autosize=1;strokeColor=none;fillColor=none;" vertex="1" parent="Rv81Eie8Nvcv5eHnvDAR-98">
          <mxGeometry y="15" width="80" height="30" as="geometry" />
        </mxCell>
        <mxCell id="Rv81Eie8Nvcv5eHnvDAR-58" value="" style="endArrow=block;html=1;rounded=0;endFill=1;" edge="1" parent="Rv81Eie8Nvcv5eHnvDAR-98">
          <mxGeometry relative="1" as="geometry">
            <mxPoint y="60" as="sourcePoint" />
            <mxPoint as="targetPoint" />
          </mxGeometry>
        </mxCell>
        <mxCell id="Rv81Eie8Nvcv5eHnvDAR-99" value="1..1" style="text;html=1;align=center;verticalAlign=middle;resizable=0;points=[];autosize=1;strokeColor=none;fillColor=none;" vertex="1" parent="1">
          <mxGeometry x="670" y="537" width="40" height="30" as="geometry" />
        </mxCell>
      </root>
    </mxGraphModel>
  </diagram>
</mxfile>
